<svg width="26" height="26" viewBox="0 0 26 26" fill="none" xmlns="http://www.w3.org/2000/svg">
<path d="M0.274981 12.315C0.275261 12.3147 0.275496 12.3144 0.275824 12.3141L5.17445 7.2818C5.54143 6.90482 6.13501 6.90622 6.50031 7.28509C6.86555 7.66392 6.86415 8.27664 6.49716 8.65367L3.20823 12.0323H23.0625C23.5803 12.0323 24 12.4655 24 13C24 13.5345 23.5803 13.9677 23.0625 13.9677H3.20827L6.49712 17.3463C6.8641 17.7234 6.86551 18.3361 6.50026 18.7149C6.13496 19.0938 5.54134 19.0951 5.1744 18.7182L0.275776 13.6859C0.275496 13.6856 0.275261 13.6853 0.274933 13.685C-0.0922394 13.3067 -0.0910664 12.692 0.274981 12.315Z" fill="#5054EB"/>
</svg>
