<svg width="23" height="51" viewBox="0 0 23 51" fill="none" xmlns="http://www.w3.org/2000/svg">
<rect width="23" height="51" rx="5" fill="#5054EB"/>
<path d="M11.8519 26.3455C12.3223 26.3455 12.7037 25.9304 12.7037 25.4183C12.7037 24.9062 12.3223 24.491 11.8519 24.491C11.3814 24.491 11 24.9062 11 25.4183C11 25.9304 11.3814 26.3455 11.8519 26.3455Z" stroke="white" stroke-width="2" stroke-linecap="round" stroke-linejoin="round"/>
<path d="M11.8519 19.8546C12.3223 19.8546 12.7037 19.4394 12.7037 18.9273C12.7037 18.4152 12.3223 18 11.8519 18C11.3814 18 11 18.4152 11 18.9273C11 19.4394 11.3814 19.8546 11.8519 19.8546Z" stroke="white" stroke-width="2" stroke-linecap="round" stroke-linejoin="round"/>
<path d="M11.8519 32.8364C12.3223 32.8364 12.7037 32.4213 12.7037 31.9091C12.7037 31.397 12.3223 30.9819 11.8519 30.9819C11.3814 30.9819 11 31.397 11 31.9091C11 32.4213 11.3814 32.8364 11.8519 32.8364Z" stroke="white" stroke-width="2" stroke-linecap="round" stroke-linejoin="round"/>
</svg>
