<svg width="39" height="46" viewBox="0 0 39 46" fill="none" xmlns="http://www.w3.org/2000/svg">
<path d="M34.125 15.3333C32.7788 15.3333 31.6875 14.242 31.6875 12.8958V10.9524C31.6875 4.90667 26.2275 0 19.5 0C12.7725 0 7.3125 4.90667 7.3125 10.9524V12.8958C7.3125 14.242 6.22119 15.3333 4.875 15.3333C2.19375 15.3333 0 17.3048 0 19.7143V41.619C0 44.0286 2.19375 46 4.875 46H34.125C36.8063 46 39 44.0286 39 41.619V19.7143C39 17.3048 36.8063 15.3333 34.125 15.3333ZM19.5 35.0476C16.8188 35.0476 14.625 33.0762 14.625 30.6667C14.625 28.2571 16.8188 26.2857 19.5 26.2857C22.1812 26.2857 24.375 28.2571 24.375 30.6667C24.375 33.0762 22.1812 35.0476 19.5 35.0476ZM16.5685 15.3333C14.1489 15.3333 12.1875 13.3719 12.1875 10.9524C12.1875 7.31619 15.4537 4.38095 19.5 4.38095C23.5462 4.38095 26.8125 7.31619 26.8125 10.9524C26.8125 13.3719 24.8511 15.3333 22.4315 15.3333H16.5685Z" fill="#5054EB"/>
</svg>
