<svg width="349" height="89" viewBox="0 0 349 89" fill="none" xmlns="http://www.w3.org/2000/svg">
<rect y="16" width="80" height="73" rx="9" fill="white"/>
<path d="M30.2578 37.1406H35.4258V58.0791C35.4258 60.9365 34.5303 63.2061 32.7393 64.8877C30.9619 66.5693 28.6104 67.4102 25.6846 67.4102C22.5674 67.4102 20.1611 66.624 18.4658 65.0518C16.7705 63.4795 15.9229 61.292 15.9229 58.4893H21.0908C21.0908 60.0752 21.4805 61.2715 22.2598 62.0781C23.0527 62.8711 24.1943 63.2676 25.6846 63.2676C27.0791 63.2676 28.1865 62.8096 29.0068 61.8936C29.8408 60.9639 30.2578 59.6855 30.2578 58.0586V37.1406ZM46.5615 55.9053V67H41.373V37.1406H52.7959C56.1318 37.1406 58.7773 38.0088 60.7324 39.7451C62.7012 41.4814 63.6855 43.7783 63.6855 46.6357C63.6855 49.5615 62.7217 51.8379 60.7939 53.4648C58.8799 55.0918 56.1934 55.9053 52.7344 55.9053H46.5615ZM46.5615 51.7422H52.7959C54.6416 51.7422 56.0498 51.3115 57.0205 50.4502C57.9912 49.5752 58.4766 48.3174 58.4766 46.6768C58.4766 45.0635 57.9844 43.7783 57 42.8213C56.0156 41.8506 54.6621 41.3516 52.9395 41.3242H46.5615V51.7422Z" fill="#5054EB"/>
<path d="M122.737 24.4844C121.897 24.4844 121.258 24.5674 120.818 24.7334C120.389 24.8896 120.105 25.1338 119.969 25.4658C119.832 25.7979 119.764 26.252 119.764 26.8281V41.8574V42.2383C119.764 43.3027 119.715 44.1377 119.617 44.7432C119.529 45.3486 119.31 45.9883 118.958 46.6621C118.46 47.6191 117.776 48.3613 116.907 48.8887C116.038 49.4258 115.203 49.7725 114.402 49.9287C113.611 50.085 112.923 50.1631 112.337 50.1631C111.38 50.1631 110.53 50.041 109.788 49.7969C109.046 49.5625 108.465 49.2109 108.045 48.7422C107.625 48.2832 107.415 47.7314 107.415 47.0869C107.415 46.5596 107.596 46.0859 107.957 45.666C108.309 45.2461 108.797 45.0361 109.422 45.0361C109.773 45.0361 110.096 45.1094 110.389 45.2559C110.672 45.4121 110.896 45.6123 111.062 45.8564C111.229 46.1104 111.312 46.3789 111.312 46.6621C111.312 46.8379 111.282 47.0186 111.224 47.2041C111.146 47.4092 111.106 47.5801 111.106 47.7168C111.106 48.2734 111.604 48.5518 112.601 48.5518C113.323 48.5518 113.885 48.4346 114.285 48.2002C114.695 47.9658 114.993 47.6289 115.179 47.1895C115.364 46.75 115.477 46.2568 115.516 45.71C115.555 45.1631 115.574 44.4111 115.574 43.4541V26.8281C115.574 26.2129 115.501 25.7441 115.354 25.4219C115.218 25.0898 114.925 24.8506 114.476 24.7041C114.036 24.5576 113.372 24.4844 112.483 24.4844V23.1367H122.737V24.4844ZM138.089 36.9648C138.089 38.293 137.767 39.4502 137.122 40.4365C136.478 41.4229 135.604 42.1797 134.5 42.707C133.406 43.2246 132.205 43.4834 130.896 43.4834C129.666 43.4834 128.499 43.2441 127.396 42.7656C126.302 42.2871 125.403 41.5596 124.7 40.583C124.007 39.6064 123.66 38.4102 123.66 36.9941C123.66 34.875 124.383 33.2686 125.828 32.1748C127.273 31.0713 128.992 30.5195 130.984 30.5195C132.469 30.5195 133.748 30.8125 134.822 31.3984C135.896 31.9844 136.707 32.7705 137.254 33.7568C137.811 34.7432 138.089 35.8125 138.089 36.9648ZM134.046 36.877C134.046 35.2168 133.826 33.9668 133.387 33.127C132.947 32.2871 132.093 31.8672 130.823 31.8672C130.013 31.8672 129.378 32.0527 128.919 32.4238C128.47 32.7852 128.152 33.3516 127.967 34.123C127.791 34.8848 127.703 35.876 127.703 37.0967C127.703 38.6006 127.903 39.8164 128.304 40.7441C128.704 41.6719 129.578 42.1357 130.926 42.1357C131.814 42.1357 132.488 41.8818 132.947 41.374C133.416 40.8564 133.714 40.2217 133.841 39.4697C133.978 38.708 134.046 37.8438 134.046 36.877ZM156.619 43H149.031V41.6523C149.607 41.6523 150.018 41.5791 150.262 41.4326C150.516 41.2764 150.672 41.0518 150.73 40.7588C150.789 40.4658 150.818 39.9824 150.818 39.3086V35.1631C150.818 34.333 150.696 33.6787 150.452 33.2002C150.208 32.7119 149.71 32.4678 148.958 32.4678C147.933 32.4678 147.166 32.8633 146.658 33.6543C146.16 34.4355 145.911 35.3389 145.911 36.3643V39.6455C145.911 40.417 146.023 40.9443 146.248 41.2275C146.473 41.5107 146.956 41.6523 147.698 41.6523V43H139.964V41.6523C140.599 41.6523 141.067 41.5986 141.37 41.4912C141.673 41.374 141.873 41.1738 141.971 40.8906C142.068 40.5977 142.117 40.1387 142.117 39.5137V34.7822C142.117 34.0986 141.985 33.6543 141.722 33.4492C141.458 33.2344 140.872 33.127 139.964 33.127V31.7793L145.662 30.5195C145.75 31.0859 145.794 31.6133 145.794 32.1016C145.794 32.2285 145.789 32.3408 145.779 32.4385C145.779 32.5264 145.779 32.6289 145.779 32.7461C146.395 32.0918 147.034 31.5596 147.698 31.1494C148.362 30.7295 149.192 30.5195 150.188 30.5195C151.028 30.5195 151.78 30.6709 152.444 30.9736C153.118 31.2764 153.646 31.7354 154.026 32.3506C154.407 32.9658 154.598 33.708 154.598 34.5771V39.5137C154.598 40.334 154.705 40.8955 154.92 41.1982C155.145 41.501 155.711 41.6523 156.619 41.6523V43ZM173.436 39.9092C173.436 40.6514 173.284 41.2861 172.981 41.8135C172.679 42.3311 172.269 42.7168 171.751 42.9707C171.243 43.2148 170.667 43.3369 170.022 43.3369C169.202 43.3369 168.519 43.1465 167.972 42.7656C167.425 42.375 167.098 41.9111 166.99 41.374C165.359 42.6826 163.719 43.3369 162.068 43.3369C161.014 43.3369 160.149 43.083 159.476 42.5752C158.802 42.0576 158.465 41.3789 158.465 40.5391C158.465 39.8457 158.646 39.2207 159.007 38.6641C159.368 38.0977 159.896 37.5947 160.589 37.1553C161.292 36.7158 162.127 36.3301 163.094 35.998C164.061 35.6562 165.267 35.2998 166.712 34.9287V34.0938C166.712 33.4004 166.546 32.8584 166.214 32.4678C165.892 32.0674 165.291 31.8672 164.412 31.8672C163.66 31.8672 163.118 32.0234 162.786 32.3359C162.454 32.6484 162.234 33.1221 162.127 33.7568C162.049 34.2061 161.902 34.5771 161.688 34.8701C161.482 35.1533 161.048 35.2949 160.384 35.2949C159.974 35.2949 159.612 35.1777 159.3 34.9434C158.987 34.709 158.831 34.3623 158.831 33.9033C158.831 32.9951 159.324 32.2041 160.311 31.5303C161.297 30.8564 162.811 30.5195 164.852 30.5195C167 30.5195 168.475 30.8809 169.275 31.6035C170.086 32.3262 170.491 33.293 170.491 34.5039V39.1328C170.491 39.7188 170.506 40.1484 170.535 40.4219C170.564 40.6953 170.643 40.9053 170.77 41.0518C170.906 41.1885 171.116 41.2568 171.399 41.2568C171.653 41.2568 171.873 41.125 172.059 40.8613C172.254 40.5977 172.352 40.2803 172.352 39.9092H173.436ZM166.712 40.0264V36.3936C164.856 36.9795 163.675 37.5557 163.167 38.1221C162.669 38.6787 162.42 39.2256 162.42 39.7627C162.42 40.2119 162.557 40.5732 162.83 40.8467C163.104 41.1201 163.489 41.2568 163.987 41.2568C164.524 41.2568 164.998 41.1445 165.408 40.9199C165.818 40.6953 166.253 40.3975 166.712 40.0264ZM184.114 40.3926C183.587 41.4961 182.972 42.2871 182.269 42.7656C181.565 43.2441 180.74 43.4834 179.793 43.4834C178.641 43.4834 177.791 43.249 177.244 42.7803C176.697 42.3115 176.36 41.7891 176.233 41.2129C176.106 40.627 176.043 39.9727 176.043 39.25V32.3506H173.831V31.0029C174.759 31.0029 175.564 30.8271 176.248 30.4756C176.932 30.124 177.469 29.6504 177.859 29.0547C178.26 28.459 178.514 27.8193 178.621 27.1357H179.822V31.0029H183.968V32.3506H179.822V39.3379C179.822 40.1875 179.876 40.8027 179.983 41.1836C180.101 41.5547 180.379 41.7402 180.818 41.7402C181.287 41.7402 181.673 41.5596 181.976 41.1982C182.278 40.8271 182.571 40.3682 182.854 39.8213L184.114 40.3926ZM201.37 43H193.841V41.6523C194.515 41.6523 194.979 41.5352 195.232 41.3008C195.486 41.0566 195.613 40.7051 195.613 40.2461V35.3242C195.613 34.8359 195.579 34.3965 195.511 34.0059C195.452 33.6152 195.286 33.2637 195.013 32.9512C194.739 32.6289 194.319 32.4678 193.753 32.4678C193.294 32.4678 192.825 32.5947 192.347 32.8486C191.878 33.0928 191.517 33.415 191.263 33.8154C190.989 34.2646 190.813 34.6992 190.735 35.1191C190.667 35.5293 190.633 36.0273 190.633 36.6133V39.1328C190.633 39.8164 190.657 40.3193 190.706 40.6416C190.765 40.9541 190.916 41.2031 191.16 41.3887C191.414 41.5645 191.829 41.6523 192.405 41.6523V43H184.729V41.6523C185.384 41.6523 185.862 41.584 186.165 41.4473C186.478 41.3105 186.668 41.1104 186.736 40.8467C186.814 40.5732 186.854 40.1289 186.854 39.5137V27.2236C186.854 26.4912 186.736 26.0029 186.502 25.7588C186.268 25.5049 185.677 25.373 184.729 25.3633V24.0449L190.633 22.7852V32.6729C191.209 32.0674 191.805 31.5596 192.42 31.1494C193.045 30.7295 193.909 30.5195 195.013 30.5195C195.521 30.5195 196.028 30.5928 196.536 30.7393C197.044 30.8857 197.498 31.1006 197.898 31.3838C198.309 31.667 198.606 31.9893 198.792 32.3506C199.192 33.0635 199.393 33.9912 199.393 35.1338V39.5137C199.393 40.334 199.495 40.8955 199.7 41.1982C199.915 41.501 200.472 41.6523 201.37 41.6523V43ZM218.143 39.9092C218.143 40.6514 217.991 41.2861 217.688 41.8135C217.386 42.3311 216.976 42.7168 216.458 42.9707C215.95 43.2148 215.374 43.3369 214.729 43.3369C213.909 43.3369 213.226 43.1465 212.679 42.7656C212.132 42.375 211.805 41.9111 211.697 41.374C210.066 42.6826 208.426 43.3369 206.775 43.3369C205.721 43.3369 204.856 43.083 204.183 42.5752C203.509 42.0576 203.172 41.3789 203.172 40.5391C203.172 39.8457 203.353 39.2207 203.714 38.6641C204.075 38.0977 204.603 37.5947 205.296 37.1553C205.999 36.7158 206.834 36.3301 207.801 35.998C208.768 35.6562 209.974 35.2998 211.419 34.9287V34.0938C211.419 33.4004 211.253 32.8584 210.921 32.4678C210.599 32.0674 209.998 31.8672 209.119 31.8672C208.367 31.8672 207.825 32.0234 207.493 32.3359C207.161 32.6484 206.941 33.1221 206.834 33.7568C206.756 34.2061 206.609 34.5771 206.395 34.8701C206.189 35.1533 205.755 35.2949 205.091 35.2949C204.681 35.2949 204.319 35.1777 204.007 34.9434C203.694 34.709 203.538 34.3623 203.538 33.9033C203.538 32.9951 204.031 32.2041 205.018 31.5303C206.004 30.8564 207.518 30.5195 209.559 30.5195C211.707 30.5195 213.182 30.8809 213.982 31.6035C214.793 32.3262 215.198 33.293 215.198 34.5039V39.1328C215.198 39.7188 215.213 40.1484 215.242 40.4219C215.271 40.6953 215.35 40.9053 215.477 41.0518C215.613 41.1885 215.823 41.2568 216.106 41.2568C216.36 41.2568 216.58 41.125 216.766 40.8613C216.961 40.5977 217.059 40.2803 217.059 39.9092H218.143ZM211.419 40.0264V36.3936C209.563 36.9795 208.382 37.5557 207.874 38.1221C207.376 38.6787 207.127 39.2256 207.127 39.7627C207.127 40.2119 207.264 40.5732 207.537 40.8467C207.811 41.1201 208.196 41.2568 208.694 41.2568C209.231 41.2568 209.705 41.1445 210.115 40.9199C210.525 40.6953 210.96 40.3975 211.419 40.0264ZM235.428 43H227.84V41.6523C228.416 41.6523 228.826 41.5791 229.07 41.4326C229.324 41.2764 229.48 41.0518 229.539 40.7588C229.598 40.4658 229.627 39.9824 229.627 39.3086V35.1631C229.627 34.333 229.505 33.6787 229.261 33.2002C229.017 32.7119 228.519 32.4678 227.767 32.4678C226.741 32.4678 225.975 32.8633 225.467 33.6543C224.969 34.4355 224.72 35.3389 224.72 36.3643V39.6455C224.72 40.417 224.832 40.9443 225.057 41.2275C225.281 41.5107 225.765 41.6523 226.507 41.6523V43H218.772V41.6523C219.407 41.6523 219.876 41.5986 220.179 41.4912C220.481 41.374 220.682 41.1738 220.779 40.8906C220.877 40.5977 220.926 40.1387 220.926 39.5137V34.7822C220.926 34.0986 220.794 33.6543 220.53 33.4492C220.267 33.2344 219.681 33.127 218.772 33.127V31.7793L224.471 30.5195C224.559 31.0859 224.603 31.6133 224.603 32.1016C224.603 32.2285 224.598 32.3408 224.588 32.4385C224.588 32.5264 224.588 32.6289 224.588 32.7461C225.203 32.0918 225.843 31.5596 226.507 31.1494C227.171 30.7295 228.001 30.5195 228.997 30.5195C229.837 30.5195 230.589 30.6709 231.253 30.9736C231.927 31.2764 232.454 31.7354 232.835 32.3506C233.216 32.9658 233.406 33.708 233.406 34.5771V39.5137C233.406 40.334 233.514 40.8955 233.729 41.1982C233.953 41.501 234.52 41.6523 235.428 41.6523V43ZM262 28.4248C262 30.0557 261.497 31.2959 260.491 32.1455C259.485 32.9854 258.299 33.5273 256.932 33.7715C255.574 34.0059 254.144 34.123 252.64 34.123H251.321V39.3086C251.321 39.8945 251.385 40.3486 251.512 40.6709C251.639 40.9932 251.912 41.2373 252.332 41.4033C252.752 41.5693 253.392 41.6523 254.251 41.6523V43H244.261V41.6523C245.11 41.6523 245.735 41.5645 246.136 41.3887C246.546 41.2129 246.81 40.9639 246.927 40.6416C247.054 40.3193 247.117 39.875 247.117 39.3086V26.7695C247.117 26.2031 247.059 25.7637 246.941 25.4512C246.824 25.1289 246.561 24.8799 246.15 24.7041C245.74 24.5186 245.11 24.4258 244.261 24.4258V23.0488L249.93 22.9023C250.223 22.8926 250.54 22.8877 250.882 22.8877C251.233 22.8779 251.512 22.873 251.717 22.873C251.922 22.8633 252.225 22.8584 252.625 22.8584C253.123 22.8584 253.494 22.8633 253.738 22.873C254.9 22.9219 256.019 23.0342 257.093 23.21C258.167 23.3857 259.251 23.8838 260.345 24.7041C261.448 25.5146 262 26.7549 262 28.4248ZM257.488 28.4541C257.488 26.8721 257.024 25.8174 256.097 25.29C255.179 24.7529 253.968 24.4844 252.464 24.4844C252.19 24.4844 251.81 24.4941 251.321 24.5137V32.4971H252.669C254.104 32.4971 255.267 32.2529 256.155 31.7646C257.044 31.2666 257.488 30.1631 257.488 28.4541ZM275.198 36.5547H266.189C266.199 36.7402 266.224 37.1357 266.263 37.7412C266.312 38.3467 266.448 38.9668 266.673 39.6016C266.907 40.2363 267.303 40.7734 267.859 41.2129C268.426 41.6426 269.183 41.8574 270.13 41.8574C270.647 41.8574 271.272 41.7256 272.005 41.4619C272.737 41.1982 273.372 40.6904 273.909 39.9385L275.052 40.7148C273.899 42.5605 272.068 43.4834 269.559 43.4834C268.436 43.4834 267.41 43.3223 266.482 43C265.564 42.6777 264.783 42.2285 264.139 41.6523C263.494 41.0762 263.001 40.3975 262.659 39.6162C262.317 38.835 262.146 37.9951 262.146 37.0967C262.146 35.915 262.43 34.8213 262.996 33.8154C263.572 32.8096 264.393 32.0088 265.457 31.4131C266.521 30.8174 267.737 30.5195 269.104 30.5195C270.442 30.5195 271.57 30.8076 272.488 31.3838C273.416 31.96 274.1 32.707 274.539 33.625C274.979 34.543 275.198 35.5195 275.198 36.5547ZM271.565 35.207C271.565 32.9805 270.687 31.8672 268.929 31.8672C268.079 31.8672 267.425 32.1748 266.966 32.79C266.517 33.4053 266.268 34.2109 266.219 35.207H271.565ZM289.466 32.834C289.466 33.4004 289.29 33.8496 288.938 34.1816C288.597 34.5039 288.191 34.665 287.723 34.665C287.166 34.665 286.678 34.3916 286.258 33.8447C286.062 33.6006 285.901 33.4248 285.774 33.3174C285.647 33.21 285.467 33.1562 285.232 33.1562C284.471 33.1562 283.875 33.5713 283.445 34.4014C283.025 35.2217 282.815 36.0762 282.815 36.9648V39.5137C282.815 40.334 282.918 40.8955 283.123 41.1982C283.338 41.501 283.895 41.6523 284.793 41.6523H285.569V43H276.473V41.6523H277.234C278.055 41.6523 278.558 41.4961 278.743 41.1836C278.929 40.8711 279.021 40.3145 279.021 39.5137V35.2363C279.021 34.582 278.953 34.1133 278.816 33.8301C278.689 33.5469 278.455 33.3613 278.113 33.2734C277.771 33.1758 277.225 33.127 276.473 33.127V31.7793L282.186 30.5195C282.332 31.0176 282.469 32.0771 282.596 33.6982C282.869 33.1221 283.226 32.5947 283.665 32.1162C284.114 31.6377 284.612 31.252 285.159 30.959C285.716 30.666 286.282 30.5195 286.858 30.5195C287.659 30.5195 288.294 30.7441 288.763 31.1934C289.231 31.6426 289.466 32.1895 289.466 32.834ZM306.224 43H298.958V41.6523C299.817 41.6523 300.247 41.4814 300.247 41.1396C300.247 40.9053 300.14 40.6562 299.925 40.3926L297.259 36.877L295.721 37.9316V39.7627C295.721 40.3486 295.779 40.7783 295.896 41.0518C296.014 41.3154 296.18 41.4814 296.395 41.5498C296.609 41.6182 296.946 41.6523 297.405 41.6523V43H289.817V41.6523C290.394 41.6523 290.833 41.5986 291.136 41.4912C291.438 41.374 291.648 41.1689 291.766 40.876C291.883 40.583 291.941 40.1289 291.941 39.5137V27.0332C291.941 26.5547 291.873 26.208 291.736 25.9932C291.609 25.7686 291.409 25.6221 291.136 25.5537C290.862 25.4854 290.423 25.4414 289.817 25.4219V24.0742L295.721 22.7852V36.2764L299.837 33.4639C300.11 33.2588 300.281 33.1172 300.35 33.0391C300.428 32.9609 300.467 32.8633 300.467 32.7461C300.467 32.4824 300.237 32.3506 299.778 32.3506H298.958V31.0029H305.169V32.3506C304.153 32.4482 303.045 32.9072 301.844 33.7275L300.35 34.7822L304.275 40.085C304.686 40.6123 305.027 41.0078 305.301 41.2715C305.584 41.5254 305.892 41.6523 306.224 41.6523V43ZM313.899 24.792C313.899 25.3779 313.689 25.8809 313.27 26.3008C312.859 26.7109 312.361 26.916 311.775 26.916C311.199 26.916 310.696 26.7061 310.267 26.2861C309.847 25.8564 309.637 25.3584 309.637 24.792C309.637 24.2061 309.847 23.7031 310.267 23.2832C310.687 22.8633 311.189 22.6533 311.775 22.6533C312.371 22.6533 312.874 22.8584 313.284 23.2686C313.694 23.6787 313.899 24.1865 313.899 24.792ZM315.555 43H307.601V41.6523H308.025C308.592 41.6523 309.002 41.5742 309.256 41.418C309.52 41.2617 309.681 41.042 309.739 40.7588C309.798 40.4756 309.827 40.0605 309.827 39.5137V35.1631C309.827 34.5576 309.788 34.1279 309.71 33.874C309.642 33.6201 309.451 33.4346 309.139 33.3174C308.836 33.2002 308.323 33.1367 307.601 33.127V31.7793L313.606 30.5195V39.5137C313.606 40.334 313.709 40.8955 313.914 41.1982C314.119 41.501 314.666 41.6523 315.555 41.6523V43ZM333.572 43H325.984V41.6523C326.561 41.6523 326.971 41.5791 327.215 41.4326C327.469 41.2764 327.625 41.0518 327.684 40.7588C327.742 40.4658 327.771 39.9824 327.771 39.3086V35.1631C327.771 34.333 327.649 33.6787 327.405 33.2002C327.161 32.7119 326.663 32.4678 325.911 32.4678C324.886 32.4678 324.119 32.8633 323.611 33.6543C323.113 34.4355 322.864 35.3389 322.864 36.3643V39.6455C322.864 40.417 322.977 40.9443 323.201 41.2275C323.426 41.5107 323.909 41.6523 324.651 41.6523V43H316.917V41.6523C317.552 41.6523 318.021 41.5986 318.323 41.4912C318.626 41.374 318.826 41.1738 318.924 40.8906C319.021 40.5977 319.07 40.1387 319.07 39.5137V34.7822C319.07 34.0986 318.938 33.6543 318.675 33.4492C318.411 33.2344 317.825 33.127 316.917 33.127V31.7793L322.615 30.5195C322.703 31.0859 322.747 31.6133 322.747 32.1016C322.747 32.2285 322.742 32.3408 322.732 32.4385C322.732 32.5264 322.732 32.6289 322.732 32.7461C323.348 32.0918 323.987 31.5596 324.651 31.1494C325.315 30.7295 326.146 30.5195 327.142 30.5195C327.981 30.5195 328.733 30.6709 329.397 30.9736C330.071 31.2764 330.599 31.7354 330.979 32.3506C331.36 32.9658 331.551 33.708 331.551 34.5771V39.5137C331.551 40.334 331.658 40.8955 331.873 41.1982C332.098 41.501 332.664 41.6523 333.572 41.6523V43ZM347.532 39.5137C347.532 40.3535 347.278 41.0713 346.771 41.667C346.272 42.2627 345.584 42.7119 344.705 43.0146C343.836 43.3271 342.83 43.4834 341.688 43.4834C340.916 43.4834 340.14 43.4053 339.358 43.249C338.577 43.1025 337.894 42.8779 337.308 42.5752L336.736 43.3955H335.594L335.447 39.5869H336.678C336.893 40.2412 337.386 40.832 338.157 41.3594C338.929 41.877 340.047 42.1357 341.512 42.1357C341.883 42.1357 342.283 42.1113 342.713 42.0625C343.143 42.0039 343.553 41.8525 343.943 41.6084C344.344 41.3643 344.544 40.9883 344.544 40.4805C344.544 40.041 344.339 39.7236 343.929 39.5283C343.528 39.3232 342.771 39.0791 341.658 38.7959C340.311 38.4541 339.207 38.1318 338.348 37.8291C337.488 37.5166 336.761 37.0723 336.165 36.4961C335.569 35.9199 335.271 35.1777 335.271 34.2695C335.271 33.1172 335.799 32.2041 336.854 31.5303C337.918 30.8564 339.31 30.5195 341.028 30.5195C342.103 30.5195 342.962 30.6074 343.606 30.7832C344.251 30.959 344.793 31.1494 345.232 31.3545L345.584 30.6074H346.756V34.0059H345.555C345.447 33.6055 345.203 33.2393 344.822 32.9072C344.441 32.5752 343.934 32.3213 343.299 32.1455C342.674 31.96 341.946 31.8672 341.116 31.8672C340.433 31.8672 339.749 31.9404 339.065 32.0869C338.392 32.2334 338.055 32.5801 338.055 33.127C338.055 33.3516 338.118 33.5371 338.245 33.6836C338.382 33.8301 338.611 33.9668 338.934 34.0938C339.256 34.2207 339.822 34.3867 340.633 34.5918C341.443 34.7969 341.927 34.9189 342.083 34.958C343.675 35.3584 344.979 35.8516 345.994 36.4375C347.02 37.0234 347.532 38.0488 347.532 39.5137Z" fill="white"/>
<path d="M115.662 84H113.787V69.7812H115.662V84ZM120.525 73.4336L120.584 74.7617C121.391 73.7461 122.446 73.2383 123.748 73.2383C125.981 73.2383 127.107 74.498 127.127 77.0176V84H125.32V77.0078C125.314 76.2461 125.138 75.6829 124.793 75.3184C124.454 74.9538 123.924 74.7715 123.201 74.7715C122.615 74.7715 122.101 74.9277 121.658 75.2402C121.215 75.5527 120.87 75.9629 120.623 76.4707V84H118.816V73.4336H120.525ZM131.717 73.4336V85.2207C131.717 87.252 130.796 88.2676 128.953 88.2676C128.556 88.2676 128.188 88.209 127.85 88.0918V86.6465C128.058 86.6986 128.331 86.7246 128.67 86.7246C129.074 86.7246 129.38 86.6139 129.588 86.3926C129.803 86.1777 129.91 85.8001 129.91 85.2598V73.4336H131.717ZM129.725 70.6309C129.725 70.3444 129.812 70.1003 129.988 69.8984C130.171 69.6901 130.434 69.5859 130.779 69.5859C131.131 69.5859 131.398 69.6868 131.58 69.8887C131.762 70.0905 131.854 70.3379 131.854 70.6309C131.854 70.9238 131.762 71.168 131.58 71.3633C131.398 71.5586 131.131 71.6562 130.779 71.6562C130.428 71.6562 130.164 71.5586 129.988 71.3633C129.812 71.168 129.725 70.9238 129.725 70.6309ZM141.16 82.9551C140.457 83.7819 139.425 84.1953 138.064 84.1953C136.938 84.1953 136.079 83.8698 135.486 83.2188C134.9 82.5612 134.604 81.5911 134.598 80.3086V73.4336H136.404V80.2598C136.404 81.8613 137.055 82.6621 138.357 82.6621C139.738 82.6621 140.656 82.1478 141.111 81.1191V73.4336H142.918V84H141.199L141.16 82.9551ZM150.779 75.0547C150.506 75.0091 150.21 74.9863 149.891 74.9863C148.706 74.9863 147.902 75.4909 147.479 76.5V84H145.672V73.4336H147.43L147.459 74.6543C148.051 73.7103 148.891 73.2383 149.979 73.2383C150.33 73.2383 150.597 73.2839 150.779 73.375V75.0547ZM156.082 81.3535L158.543 73.4336H160.477L156.229 85.6309C155.571 87.3887 154.526 88.2676 153.094 88.2676L152.752 88.2383L152.078 88.1113V86.6465L152.566 86.6855C153.178 86.6855 153.654 86.5618 153.992 86.3145C154.337 86.0671 154.62 85.6146 154.842 84.957L155.242 83.8828L151.473 73.4336H153.445L156.082 81.3535ZM169.227 82.4668H175.965V84H167.342V69.7812H169.227V82.4668ZM184.344 84C184.24 83.7917 184.155 83.4206 184.09 82.8867C183.25 83.7591 182.247 84.1953 181.082 84.1953C180.04 84.1953 179.184 83.9023 178.514 83.3164C177.85 82.724 177.518 81.9753 177.518 81.0703C177.518 79.9701 177.934 79.1172 178.768 78.5117C179.607 77.8997 180.786 77.5938 182.303 77.5938H184.061V76.7637C184.061 76.1322 183.872 75.6309 183.494 75.2598C183.117 74.8822 182.56 74.6934 181.824 74.6934C181.18 74.6934 180.639 74.8561 180.203 75.1816C179.767 75.5072 179.549 75.901 179.549 76.3633H177.732C177.732 75.8359 177.918 75.3281 178.289 74.8398C178.667 74.3451 179.174 73.9544 179.812 73.668C180.457 73.3815 181.163 73.2383 181.932 73.2383C183.149 73.2383 184.103 73.5443 184.793 74.1562C185.483 74.7617 185.841 75.5983 185.867 76.666V81.5293C185.867 82.4993 185.991 83.2708 186.238 83.8438V84H184.344ZM181.346 82.623C181.912 82.623 182.449 82.4766 182.957 82.1836C183.465 81.8906 183.833 81.5098 184.061 81.041V78.873H182.645C180.431 78.873 179.324 79.5208 179.324 80.8164C179.324 81.3828 179.513 81.8255 179.891 82.1445C180.268 82.4635 180.753 82.623 181.346 82.623ZM198.055 81.5098L200.086 73.4336H201.893L198.816 84H197.352L194.783 75.9922L192.283 84H190.818L187.752 73.4336H189.549L191.629 81.3438L194.09 73.4336H195.545L198.055 81.5098ZM207.195 81.3535L209.656 73.4336H211.59L207.342 85.6309C206.684 87.3887 205.639 88.2676 204.207 88.2676L203.865 88.2383L203.191 88.1113V86.6465L203.68 86.6855C204.292 86.6855 204.767 86.5618 205.105 86.3145C205.451 86.0671 205.734 85.6146 205.955 84.957L206.355 83.8828L202.586 73.4336H204.559L207.195 81.3535ZM217.459 84.1953C216.027 84.1953 214.861 83.7266 213.963 82.7891C213.064 81.8451 212.615 80.5853 212.615 79.0098V78.6777C212.615 77.6296 212.814 76.6953 213.211 75.875C213.615 75.0482 214.174 74.4036 214.891 73.9414C215.613 73.4727 216.395 73.2383 217.234 73.2383C218.608 73.2383 219.676 73.6908 220.438 74.5957C221.199 75.5007 221.58 76.7962 221.58 78.4824V79.2344H214.422C214.448 80.276 214.751 81.1191 215.33 81.7637C215.916 82.4017 216.658 82.7207 217.557 82.7207C218.195 82.7207 218.735 82.5905 219.178 82.3301C219.62 82.0697 220.008 81.7246 220.34 81.2949L221.443 82.1543C220.558 83.515 219.23 84.1953 217.459 84.1953ZM217.234 74.7227C216.505 74.7227 215.893 74.9896 215.398 75.5234C214.904 76.0508 214.598 76.793 214.48 77.75H219.773V77.6133C219.721 76.6953 219.474 75.9857 219.031 75.4844C218.589 74.9766 217.99 74.7227 217.234 74.7227ZM228.787 75.0547C228.514 75.0091 228.217 74.9863 227.898 74.9863C226.714 74.9863 225.91 75.4909 225.486 76.5V84H223.68V73.4336H225.438L225.467 74.6543C226.059 73.7103 226.899 73.2383 227.986 73.2383C228.338 73.2383 228.605 73.2839 228.787 73.375V75.0547ZM236.609 81.1973C236.609 80.709 236.424 80.3314 236.053 80.0645C235.688 79.791 235.047 79.5566 234.129 79.3613C233.217 79.166 232.492 78.9316 231.951 78.6582C231.417 78.3848 231.02 78.0592 230.76 77.6816C230.506 77.304 230.379 76.8548 230.379 76.334C230.379 75.4681 230.743 74.7357 231.473 74.1367C232.208 73.5378 233.146 73.2383 234.285 73.2383C235.483 73.2383 236.453 73.5475 237.195 74.166C237.944 74.7845 238.318 75.5755 238.318 76.5391H236.502C236.502 76.0443 236.29 75.6178 235.867 75.2598C235.451 74.9017 234.923 74.7227 234.285 74.7227C233.628 74.7227 233.113 74.8659 232.742 75.1523C232.371 75.4388 232.186 75.8132 232.186 76.2754C232.186 76.7116 232.358 77.0404 232.703 77.2617C233.048 77.4831 233.67 77.6947 234.568 77.8965C235.473 78.0983 236.206 78.3392 236.766 78.6191C237.326 78.8991 237.739 79.2376 238.006 79.6348C238.279 80.0254 238.416 80.5039 238.416 81.0703C238.416 82.0143 238.038 82.7728 237.283 83.3457C236.528 83.9121 235.548 84.1953 234.344 84.1953C233.497 84.1953 232.749 84.0456 232.098 83.7461C231.447 83.4466 230.936 83.0299 230.564 82.4961C230.2 81.9557 230.018 81.373 230.018 80.748H231.824C231.857 81.3535 232.098 81.8353 232.547 82.1934C233.003 82.5449 233.602 82.7207 234.344 82.7207C235.027 82.7207 235.574 82.584 235.984 82.3105C236.401 82.0306 236.609 81.6595 236.609 81.1973Z" fill="white" fill-opacity="0.5"/>
</svg>
