<svg width="26" height="26" viewBox="0 0 26 26" fill="none" xmlns="http://www.w3.org/2000/svg">
<path d="M25.9839 25.3272L25.3338 22.7272C25.0254 21.4659 24.0904 20.4515 22.8583 20.0416L18.0915 18.4534C16.9291 17.9692 16.3972 16.0972 16.2823 15.3865C17.168 14.65 17.738 13.6021 17.8748 12.4583C17.8553 12.2629 17.9014 12.0666 18.0059 11.9003C18.1748 11.858 18.3131 11.7371 18.3775 11.5753C18.6894 10.8201 18.8852 10.022 18.9582 9.20828C18.9583 9.16405 18.9529 9.12002 18.9419 9.07721C18.8643 8.761 18.6784 8.48196 18.4165 8.28853V5.41661C18.4165 3.67137 17.8835 2.9553 17.3223 2.54037C17.2151 1.69974 16.3148 0 12.9998 0C10.0586 0.118421 7.70135 2.47558 7.58292 5.41666V8.28858C7.32099 8.48201 7.13507 8.76105 7.05748 9.07726C7.04651 9.12007 7.04107 9.16415 7.04123 9.20833C7.11415 10.0225 7.30992 10.8209 7.62192 11.5765C7.66885 11.7296 7.79189 11.8474 7.94693 11.8874C8.00762 11.9178 8.12137 12.0749 8.12137 12.4584C8.25904 13.6054 8.83228 14.6557 9.7226 15.392C9.60884 16.1016 9.08015 17.9725 7.95023 18.4448L3.14117 20.0417C1.91005 20.4515 0.975649 21.4648 0.666789 22.7251L0.0167718 25.3251C-0.0568122 25.615 0.118591 25.9098 0.40856 25.9833C0.451877 25.9944 0.496414 25.9999 0.541102 26H25.4585C25.7576 25.9999 26 25.7573 26 25.4582C25.9999 25.4139 25.9945 25.37 25.9839 25.3272Z" fill="#848A9D"/>
</svg>
