<svg width="23" height="24" viewBox="0 0 23 24" fill="none" xmlns="http://www.w3.org/2000/svg">
<g clip-path="url(#clip0)">
<path d="M23 16.2422C23 13.264 21.3626 10.606 18.9103 9.31314C18.8342 15.0235 14.3974 19.6531 8.92505 19.7326C10.1641 22.2915 12.7113 24 15.5654 24C16.9036 24 18.2049 23.6281 19.3483 22.9215L22.9675 23.9662L21.9664 20.1896C22.6436 18.9965 23 17.6386 23 16.2422Z" fill="#131E40" fill-opacity="0.5"/>
<path d="M17.5645 9.16406C17.5645 4.1109 13.6248 0 8.78223 0C3.93961 0 0 4.1109 0 9.16406C0 10.8109 0.42009 12.4144 1.2178 13.8221L0.0322876 18.2943L4.31829 17.0574C5.66735 17.8898 7.20399 18.3281 8.78223 18.3281C13.6248 18.3281 17.5645 14.2172 17.5645 9.16406ZM7.43457 7.03125H6.08691C6.08691 5.48035 7.29594 4.21875 8.78223 4.21875C10.2685 4.21875 11.4775 5.48035 11.4775 7.03125C11.4775 7.81842 11.1582 8.57501 10.601 9.10675L9.45605 10.2003V11.2969H8.1084V9.58099L9.69119 8.06927C9.97406 7.79919 10.1299 7.4306 10.1299 7.03125C10.1299 6.2558 9.52537 5.625 8.78223 5.625C8.03909 5.625 7.43457 6.2558 7.43457 7.03125ZM8.1084 12.7031H9.45605V14.1094H8.1084V12.7031Z" fill="#131E40" fill-opacity="0.5"/>
</g>
<defs>
<clipPath id="clip0">
<rect width="23" height="24" fill="white"/>
</clipPath>
</defs>
</svg>
