<svg width="32" height="32" viewBox="0 0 32 32" fill="none" xmlns="http://www.w3.org/2000/svg">
<path d="M15.7495 0.452454C7.1935 0.452454 0.2495 7.39645 0.2495 15.9525C0.2495 24.5085 7.1935 31.4525 15.7495 31.4525C24.3055 31.4525 31.2495 24.5085 31.2495 15.9525C31.2495 7.39645 24.3055 0.452454 15.7495 0.452454ZM11.549 22.602L5.9845 17.0375C5.38 16.433 5.38 15.4565 5.9845 14.852C6.589 14.2475 7.5655 14.2475 8.17 14.852L12.6495 19.316L23.3135 8.65195C23.918 8.04745 24.8945 8.04745 25.499 8.65195C26.1035 9.25645 26.1035 10.233 25.499 10.8375L13.7345 22.602C13.1455 23.2065 12.1535 23.2065 11.549 22.602Z" fill="#5054EB"/>
</svg>
