<svg width="19" height="19" viewBox="0 0 19 19" fill="none" xmlns="http://www.w3.org/2000/svg">
<path opacity="0.5" d="M13.4138 11.7973H12.5661L12.2657 11.5078C13.5533 10.0064 14.2186 7.95806 13.8538 5.78104C13.3495 2.7997 10.86 0.418917 7.85542 0.0542921C3.31641 -0.503369 -0.503664 3.31446 0.054324 7.85082C0.419162 10.8536 2.80134 13.3416 5.78443 13.8457C7.96273 14.2103 10.0123 13.5454 11.5145 12.2585L11.8043 12.5588V13.406L16.3647 17.9638C16.8047 18.4035 17.5236 18.4035 17.9636 17.9638C18.4035 17.5241 18.4035 16.8056 17.9636 16.3659L13.4138 11.7973ZM6.97552 11.7973C4.30362 11.7973 2.14678 9.64177 2.14678 6.97143C2.14678 4.30109 4.30362 2.14552 6.97552 2.14552C9.64742 2.14552 11.8043 4.30109 11.8043 6.97143C11.8043 9.64177 9.64742 11.7973 6.97552 11.7973Z" fill="black"/>
</svg>
