<svg width="73" height="55" viewBox="0 0 73 55" fill="none" xmlns="http://www.w3.org/2000/svg">
<path d="M57.0396 54.0583H45.2409H42.0638H41.3776V38.2322H46.5535C47.8662 38.2322 48.6418 36.7406 47.8662 35.6666L37.7977 21.7349C37.1563 20.8399 35.8288 20.8399 35.1874 21.7349L25.1189 35.6666C24.3433 36.7406 25.104 38.2322 26.4315 38.2322H31.6075V54.0583H30.9213H27.7442H14.066C6.23498 53.6258 0 46.3019 0 38.3665C0 32.8922 2.96833 28.119 7.36862 25.5385C6.96588 24.4496 6.75705 23.2862 6.75705 22.063C6.75705 16.4694 11.2767 11.9498 16.8702 11.9498C18.0785 11.9498 19.2419 12.1587 20.3308 12.5614C23.5676 5.69993 30.5484 0.94165 38.6629 0.94165C49.1639 0.956567 57.8153 8.99641 58.7998 19.2439C66.8694 20.6311 73 28.1041 73 36.5616C73 45.6008 65.9595 53.4318 57.0396 54.0583Z" fill="#5054EB"/>
</svg>
